<?xml version="1.0" encoding="UTF-8"?>
<svg xmlns="http://www.w3.org/2000/svg" xmlns:xlink="http://www.w3.org/1999/xlink" width="2100" height="2100" viewBox="0 0 2100 2100">
<defs>
<clipPath id="clip-0">
<path clip-rule="nonzero" d="M 590 184 L 1560 184 L 1560 1204 L 590 1204 Z M 590 184 "/>
</clipPath>
<clipPath id="clip-1">
<path clip-rule="nonzero" d="M 1050 1203.628906 C 920.621094 1203.628906 802.261719 1155.011719 712.257812 1075.101562 C 634.632812 949.730469 590.503906 805.910156 590.503906 653 C 590.503906 567.230469 604.390625 484.320312 630.277344 405.929688 C 722.285156 272.460938 876.191406 184.710938 1050 184.710938 C 1330.660156 184.710938 1559.460938 413.511719 1559.460938 694.171875 C 1559.460938 974.839844 1330.660156 1203.628906 1050 1203.628906 M 1050.25 253.789062 C 805.117188 253.789062 606.984375 451.949219 606.984375 697.03125 C 606.984375 941.648438 805.117188 1139.761719 1050.25 1139.761719 C 1294.859375 1139.761719 1493.019531 941.648438 1493.019531 697.03125 C 1493.019531 451.949219 1294.859375 253.789062 1050.25 253.789062 "/>
</clipPath>
<clipPath id="clip-2">
<path clip-rule="nonzero" d="M 1050 1203.628906 C 920.621094 1203.628906 802.261719 1155.011719 712.257812 1075.101562 C 634.632812 949.730469 590.503906 805.910156 590.503906 653 C 590.503906 567.230469 604.390625 484.320312 630.277344 405.929688 C 722.285156 272.460938 876.191406 184.710938 1050 184.710938 C 1330.660156 184.710938 1559.460938 413.511719 1559.460938 694.171875 C 1559.460938 974.839844 1330.660156 1203.628906 1050 1203.628906 M 1050.25 253.789062 C 805.117188 253.789062 606.984375 451.949219 606.984375 697.03125 C 606.984375 941.648438 805.117188 1139.761719 1050.25 1139.761719 C 1294.859375 1139.761719 1493.019531 941.648438 1493.019531 697.03125 C 1493.019531 451.949219 1294.859375 253.789062 1050.25 253.789062 "/>
</clipPath>
<linearGradient id="linear-pattern-0" gradientUnits="userSpaceOnUse" x1="-0.135517" y1="0" x2="0.57929" y2="0" gradientTransform="matrix(-1634.27, 941.784, -941.784, -1634.27, 1431.38, 474.4)">
<stop offset="0" stop-color="rgb(9.431458%, 7.801819%, 7.546997%)" stop-opacity="1"/>
<stop offset="0.125" stop-color="rgb(9.431458%, 7.801819%, 7.546997%)" stop-opacity="1"/>
<stop offset="0.1875" stop-color="rgb(9.431458%, 7.801819%, 7.546997%)" stop-opacity="1"/>
<stop offset="0.21875" stop-color="rgb(9.451294%, 7.820129%, 7.575989%)" stop-opacity="1"/>
<stop offset="0.25" stop-color="rgb(9.518433%, 7.88269%, 7.670593%)" stop-opacity="1"/>
<stop offset="0.265625" stop-color="rgb(9.593201%, 7.952881%, 7.765198%)" stop-opacity="1"/>
<stop offset="0.28125" stop-color="rgb(9.658813%, 8.015442%, 7.835388%)" stop-opacity="1"/>
<stop offset="0.3125" stop-color="rgb(9.735107%, 8.068848%, 7.907104%)" stop-opacity="1"/>
<stop offset="0.34375" stop-color="rgb(9.806824%, 8.097839%, 7.965088%)" stop-opacity="1"/>
<stop offset="0.359375" stop-color="rgb(9.883118%, 8.152771%, 8.03833%)" stop-opacity="1"/>
<stop offset="0.375" stop-color="rgb(9.967041%, 8.215332%, 8.106995%)" stop-opacity="1"/>
<stop offset="0.40625" stop-color="rgb(10.090637%, 8.287048%, 8.181763%)" stop-opacity="1"/>
<stop offset="0.4375" stop-color="rgb(10.202026%, 8.361816%, 8.261108%)" stop-opacity="1"/>
<stop offset="0.46875" stop-color="rgb(10.284424%, 8.439636%, 8.349609%)" stop-opacity="1"/>
<stop offset="0.5" stop-color="rgb(10.406494%, 8.552551%, 8.477783%)" stop-opacity="1"/>
<stop offset="0.53125" stop-color="rgb(10.499573%, 8.639526%, 8.575439%)" stop-opacity="1"/>
<stop offset="0.5625" stop-color="rgb(10.568237%, 8.703613%, 8.647156%)" stop-opacity="1"/>
<stop offset="0.578125" stop-color="rgb(10.641479%, 8.773804%, 8.738708%)" stop-opacity="1"/>
<stop offset="0.59375" stop-color="rgb(10.708618%, 8.834839%, 8.834839%)" stop-opacity="1"/>
<stop offset="0.625" stop-color="rgb(10.774231%, 8.866882%, 8.880615%)" stop-opacity="1"/>
<stop offset="0.640625" stop-color="rgb(10.847473%, 8.888245%, 8.898926%)" stop-opacity="1"/>
<stop offset="0.65625" stop-color="rgb(10.935974%, 8.952332%, 8.969116%)" stop-opacity="1"/>
<stop offset="0.6875" stop-color="rgb(11.010742%, 9.020996%, 9.046936%)" stop-opacity="1"/>
<stop offset="0.71875" stop-color="rgb(11.079407%, 9.083557%, 9.118652%)" stop-opacity="1"/>
<stop offset="0.734375" stop-color="rgb(11.154175%, 9.153748%, 9.196472%)" stop-opacity="1"/>
<stop offset="0.75" stop-color="rgb(11.221313%, 9.216309%, 9.268188%)" stop-opacity="1"/>
<stop offset="0.78125" stop-color="rgb(11.253357%, 9.2453%, 9.300232%)" stop-opacity="1"/>
<stop offset="0.796875" stop-color="rgb(11.276245%, 9.268188%, 9.326172%)" stop-opacity="1"/>
<stop offset="0.8125" stop-color="rgb(11.343384%, 9.33075%, 9.396362%)" stop-opacity="1"/>
<stop offset="0.84375" stop-color="rgb(11.418152%, 9.399414%, 9.487915%)" stop-opacity="1"/>
<stop offset="0.859375" stop-color="rgb(11.497498%, 9.47113%, 9.597778%)" stop-opacity="1"/>
<stop offset="0.875" stop-color="rgb(11.592102%, 9.558105%, 9.712219%)" stop-opacity="1"/>
<stop offset="0.890625" stop-color="rgb(11.680603%, 9.611511%, 9.770203%)" stop-opacity="1"/>
<stop offset="0.90625" stop-color="rgb(11.761475%, 9.649658%, 9.797668%)" stop-opacity="1"/>
<stop offset="0.9375" stop-color="rgb(11.84845%, 9.751892%, 9.881592%)" stop-opacity="1"/>
<stop offset="0.953125" stop-color="rgb(11.91864%, 9.849548%, 9.970093%)" stop-opacity="1"/>
<stop offset="0.96875" stop-color="rgb(11.993408%, 9.918213%, 10.047913%)" stop-opacity="1"/>
<stop offset="1" stop-color="rgb(12.103271%, 10.020447%, 10.163879%)" stop-opacity="1"/>
</linearGradient>
<clipPath id="clip-3">
<path clip-rule="nonzero" d="M 256 1817 L 1844 1817 L 1844 2071 L 256 2071 Z M 256 1817 "/>
</clipPath>
<clipPath id="clip-4">
<path clip-rule="nonzero" d="M 1050 2070.519531 C 611.761719 2070.519531 256.5 2013.808594 256.5 1943.828125 C 256.5 1876.039062 590.308594 1820.679688 1009.941406 1817.351562 L 1051.949219 1894.078125 L 1052.378906 1895.730469 L 1052.53125 1895.140625 L 1052.851562 1895.730469 L 1095.441406 1817.398438 C 1512.550781 1821.148438 1843.5 1876.328125 1843.5 1943.828125 C 1843.5 2013.808594 1488.238281 2070.519531 1050 2070.519531 "/>
</clipPath>
<clipPath id="clip-5">
<path clip-rule="nonzero" d="M 1050 2070.519531 C 611.761719 2070.519531 256.5 2013.808594 256.5 1943.828125 C 256.5 1876.039062 590.308594 1820.679688 1009.941406 1817.351562 L 1051.949219 1894.078125 L 1052.378906 1895.730469 L 1052.53125 1895.140625 L 1052.851562 1895.730469 L 1095.441406 1817.398438 C 1512.550781 1821.148438 1843.5 1876.328125 1843.5 1943.828125 C 1843.5 2013.808594 1488.238281 2070.519531 1050 2070.519531 "/>
</clipPath>
<radialGradient id="radial-pattern-0" gradientUnits="userSpaceOnUse" cx="0" cy="0" fx="0" fy="0" r="460.1155" gradientTransform="matrix(1.724737, 0, 0, 0.275263, 1050, 1943.86)">
<stop offset="0" stop-color="rgb(55.131531%, 54.704285%, 54.840088%)" stop-opacity="1"/>
<stop offset="0.00390625" stop-color="rgb(55.403137%, 54.904175%, 55.149841%)" stop-opacity="1"/>
<stop offset="0.0078125" stop-color="rgb(55.67627%, 55.105591%, 55.461121%)" stop-opacity="1"/>
<stop offset="0.0117188" stop-color="rgb(55.950928%, 55.31311%, 55.763245%)" stop-opacity="1"/>
<stop offset="0.015625" stop-color="rgb(56.243896%, 55.577087%, 55.99823%)" stop-opacity="1"/>
<stop offset="0.0195312" stop-color="rgb(56.549072%, 55.886841%, 56.170654%)" stop-opacity="1"/>
<stop offset="0.0234375" stop-color="rgb(56.855774%, 56.199646%, 56.344604%)" stop-opacity="1"/>
<stop offset="0.0273438" stop-color="rgb(57.141113%, 56.498718%, 56.533813%)" stop-opacity="1"/>
<stop offset="0.03125" stop-color="rgb(57.337952%, 56.750488%, 56.787109%)" stop-opacity="1"/>
<stop offset="0.0351562" stop-color="rgb(57.469177%, 56.964111%, 57.084656%)" stop-opacity="1"/>
<stop offset="0.0390625" stop-color="rgb(57.601929%, 57.17926%, 57.383728%)" stop-opacity="1"/>
<stop offset="0.0429688" stop-color="rgb(57.769775%, 57.398987%, 57.653809%)" stop-opacity="1"/>
<stop offset="0.046875" stop-color="rgb(58.032227%, 57.635498%, 57.852173%)" stop-opacity="1"/>
<stop offset="0.0507812" stop-color="rgb(58.346558%, 57.881165%, 58.006287%)" stop-opacity="1"/>
<stop offset="0.0546875" stop-color="rgb(58.665466%, 58.128357%, 58.1604%)" stop-opacity="1"/>
<stop offset="0.0585938" stop-color="rgb(58.943176%, 58.355713%, 58.357239%)" stop-opacity="1"/>
<stop offset="0.0625" stop-color="rgb(59.150696%, 58.552551%, 58.631897%)" stop-opacity="1"/>
<stop offset="0.0664062" stop-color="rgb(59.324646%, 58.732605%, 58.947754%)" stop-opacity="1"/>
<stop offset="0.0703125" stop-color="rgb(59.49707%, 58.914185%, 59.263611%)" stop-opacity="1"/>
<stop offset="0.0742188" stop-color="rgb(59.719849%, 59.144592%, 59.536743%)" stop-opacity="1"/>
<stop offset="0.078125" stop-color="rgb(60.011292%, 59.446716%, 59.744263%)" stop-opacity="1"/>
<stop offset="0.0820312" stop-color="rgb(60.331726%, 59.776306%, 59.93042%)" stop-opacity="1"/>
<stop offset="0.0859375" stop-color="rgb(60.649109%, 60.105896%, 60.118103%)" stop-opacity="1"/>
<stop offset="0.0898438" stop-color="rgb(60.948181%, 60.385132%, 60.328674%)" stop-opacity="1"/>
<stop offset="0.09375" stop-color="rgb(61.222839%, 60.600281%, 60.569763%)" stop-opacity="1"/>
<stop offset="0.0976562" stop-color="rgb(61.491394%, 60.801697%, 60.818481%)" stop-opacity="1"/>
<stop offset="0.101562" stop-color="rgb(61.761475%, 61.003113%, 61.0672%)" stop-opacity="1"/>
<stop offset="0.105469" stop-color="rgb(61.985779%, 61.235046%, 61.299133%)" stop-opacity="1"/>
<stop offset="0.109375" stop-color="rgb(62.164307%, 61.499023%, 61.514282%)" stop-opacity="1"/>
<stop offset="0.113281" stop-color="rgb(62.341309%, 61.764526%, 61.727905%)" stop-opacity="1"/>
<stop offset="0.117188" stop-color="rgb(62.524414%, 62.031555%, 61.943054%)" stop-opacity="1"/>
<stop offset="0.121094" stop-color="rgb(62.831116%, 62.304688%, 62.167358%)" stop-opacity="1"/>
<stop offset="0.125" stop-color="rgb(63.252258%, 62.585449%, 62.40387%)" stop-opacity="1"/>
<stop offset="0.128906" stop-color="rgb(63.674927%, 62.867737%, 62.640381%)" stop-opacity="1"/>
<stop offset="0.132812" stop-color="rgb(64.074707%, 63.142395%, 62.887573%)" stop-opacity="1"/>
<stop offset="0.136719" stop-color="rgb(64.352417%, 63.371277%, 63.183594%)" stop-opacity="1"/>
<stop offset="0.140625" stop-color="rgb(64.532471%, 63.566589%, 63.522339%)" stop-opacity="1"/>
<stop offset="0.144531" stop-color="rgb(64.712524%, 63.761902%, 63.861084%)" stop-opacity="1"/>
<stop offset="0.148438" stop-color="rgb(64.909363%, 63.998413%, 64.190674%)" stop-opacity="1"/>
<stop offset="0.152344" stop-color="rgb(65.148926%, 64.364624%, 64.489746%)" stop-opacity="1"/>
<stop offset="0.15625" stop-color="rgb(65.419006%, 64.816284%, 64.767456%)" stop-opacity="1"/>
<stop offset="0.160156" stop-color="rgb(65.690613%, 65.272522%, 65.045166%)" stop-opacity="1"/>
<stop offset="0.164062" stop-color="rgb(65.986633%, 65.657043%, 65.315247%)" stop-opacity="1"/>
<stop offset="0.167969" stop-color="rgb(66.333008%, 65.893555%, 65.562439%)" stop-opacity="1"/>
<stop offset="0.171875" stop-color="rgb(66.705322%, 66.049194%, 65.79895%)" stop-opacity="1"/>
<stop offset="0.175781" stop-color="rgb(67.079163%, 66.20636%, 66.038513%)" stop-opacity="1"/>
<stop offset="0.179688" stop-color="rgb(67.39502%, 66.377258%, 66.287231%)" stop-opacity="1"/>
<stop offset="0.183594" stop-color="rgb(67.619324%, 66.571045%, 66.557312%)" stop-opacity="1"/>
<stop offset="0.1875" stop-color="rgb(67.803955%, 66.773987%, 66.836548%)" stop-opacity="1"/>
<stop offset="0.191406" stop-color="rgb(67.988586%, 66.976929%, 67.115784%)" stop-opacity="1"/>
<stop offset="0.195312" stop-color="rgb(68.208313%, 67.247009%, 67.36145%)" stop-opacity="1"/>
<stop offset="0.199219" stop-color="rgb(68.475342%, 67.607117%, 67.559814%)" stop-opacity="1"/>
<stop offset="0.203125" stop-color="rgb(68.754578%, 67.991638%, 67.744446%)" stop-opacity="1"/>
<stop offset="0.207031" stop-color="rgb(69.035339%, 68.379211%, 67.932129%)" stop-opacity="1"/>
<stop offset="0.210938" stop-color="rgb(69.274902%, 68.687439%, 68.128967%)" stop-opacity="1"/>
<stop offset="0.214844" stop-color="rgb(69.468689%, 68.907166%, 68.336487%)" stop-opacity="1"/>
<stop offset="0.21875" stop-color="rgb(69.656372%, 69.113159%, 68.545532%)" stop-opacity="1"/>
<stop offset="0.222656" stop-color="rgb(69.845581%, 69.320679%, 68.754578%)" stop-opacity="1"/>
<stop offset="0.226562" stop-color="rgb(70.080566%, 69.497681%, 69.024658%)" stop-opacity="1"/>
<stop offset="0.230469" stop-color="rgb(70.362854%, 69.645691%, 69.3573%)" stop-opacity="1"/>
<stop offset="0.234375" stop-color="rgb(70.648193%, 69.795227%, 69.691467%)" stop-opacity="1"/>
<stop offset="0.238281" stop-color="rgb(70.930481%, 69.961548%, 70.016479%)" stop-opacity="1"/>
<stop offset="0.242188" stop-color="rgb(71.214294%, 70.251465%, 70.272827%)" stop-opacity="1"/>
<stop offset="0.246094" stop-color="rgb(71.499634%, 70.646667%, 70.46814%)" stop-opacity="1"/>
<stop offset="0.25" stop-color="rgb(71.784973%, 71.044922%, 70.666504%)" stop-opacity="1"/>
<stop offset="0.253906" stop-color="rgb(72.058105%, 71.408081%, 70.861816%)" stop-opacity="1"/>
<stop offset="0.257812" stop-color="rgb(72.283936%, 71.636963%, 71.052551%)" stop-opacity="1"/>
<stop offset="0.261719" stop-color="rgb(72.47467%, 71.765137%, 71.238708%)" stop-opacity="1"/>
<stop offset="0.265625" stop-color="rgb(72.665405%, 71.896362%, 71.424866%)" stop-opacity="1"/>
<stop offset="0.269531" stop-color="rgb(72.857666%, 72.042847%, 71.601868%)" stop-opacity="1"/>
<stop offset="0.273438" stop-color="rgb(73.048401%, 72.23053%, 71.755981%)" stop-opacity="1"/>
<stop offset="0.277344" stop-color="rgb(73.240662%, 72.444153%, 71.894836%)" stop-opacity="1"/>
<stop offset="0.28125" stop-color="rgb(73.432922%, 72.659302%, 72.035217%)" stop-opacity="1"/>
<stop offset="0.285156" stop-color="rgb(73.649597%, 72.879028%, 72.19696%)" stop-opacity="1"/>
<stop offset="0.289062" stop-color="rgb(73.9151%, 73.112488%, 72.398376%)" stop-opacity="1"/>
<stop offset="0.292969" stop-color="rgb(74.205017%, 73.352051%, 72.618103%)" stop-opacity="1"/>
<stop offset="0.296875" stop-color="rgb(74.493408%, 73.590088%, 72.83783%)" stop-opacity="1"/>
<stop offset="0.300781" stop-color="rgb(74.749756%, 73.825073%, 73.11554%)" stop-opacity="1"/>
<stop offset="0.304688" stop-color="rgb(74.958801%, 74.050903%, 73.475647%)" stop-opacity="1"/>
<stop offset="0.308594" stop-color="rgb(75.152588%, 74.273682%, 73.86322%)" stop-opacity="1"/>
<stop offset="0.3125" stop-color="rgb(75.346375%, 74.497986%, 74.253845%)" stop-opacity="1"/>
<stop offset="0.316406" stop-color="rgb(75.578308%, 74.69635%, 74.56665%)" stop-opacity="1"/>
<stop offset="0.320312" stop-color="rgb(75.85907%, 74.859619%, 74.778748%)" stop-opacity="1"/>
<stop offset="0.324219" stop-color="rgb(76.148987%, 75.018311%, 74.97406%)" stop-opacity="1"/>
<stop offset="0.328125" stop-color="rgb(76.437378%, 75.175476%, 75.167847%)" stop-opacity="1"/>
<stop offset="0.332031" stop-color="rgb(76.730347%, 75.415039%, 75.357056%)" stop-opacity="1"/>
<stop offset="0.335938" stop-color="rgb(77.023315%, 75.740051%, 75.538635%)" stop-opacity="1"/>
<stop offset="0.339844" stop-color="rgb(77.31781%, 76.074219%, 75.721741%)" stop-opacity="1"/>
<stop offset="0.34375" stop-color="rgb(77.607727%, 76.403809%, 75.906372%)" stop-opacity="1"/>
<stop offset="0.347656" stop-color="rgb(77.850342%, 76.679993%, 76.115417%)" stop-opacity="1"/>
<stop offset="0.351562" stop-color="rgb(78.04718%, 76.905823%, 76.350403%)" stop-opacity="1"/>
<stop offset="0.355469" stop-color="rgb(78.244019%, 77.133179%, 76.585388%)" stop-opacity="1"/>
<stop offset="0.359375" stop-color="rgb(78.440857%, 77.359009%, 76.820374%)" stop-opacity="1"/>
<stop offset="0.363281" stop-color="rgb(78.637695%, 77.586365%, 77.055359%)" stop-opacity="1"/>
<stop offset="0.367188" stop-color="rgb(78.834534%, 77.815247%, 77.29187%)" stop-opacity="1"/>
<stop offset="0.371094" stop-color="rgb(79.032898%, 78.044128%, 77.529907%)" stop-opacity="1"/>
<stop offset="0.375" stop-color="rgb(79.231262%, 78.27301%, 77.76947%)" stop-opacity="1"/>
<stop offset="0.378906" stop-color="rgb(79.429626%, 78.503418%, 78.009033%)" stop-opacity="1"/>
<stop offset="0.382812" stop-color="rgb(79.627991%, 78.733826%, 78.248596%)" stop-opacity="1"/>
<stop offset="0.386719" stop-color="rgb(79.826355%, 78.964233%, 78.489685%)" stop-opacity="1"/>
<stop offset="0.390625" stop-color="rgb(80.047607%, 79.200745%, 78.730774%)" stop-opacity="1"/>
<stop offset="0.394531" stop-color="rgb(80.317688%, 79.450989%, 78.973389%)" stop-opacity="1"/>
<stop offset="0.398438" stop-color="rgb(80.61676%, 79.708862%, 79.216003%)" stop-opacity="1"/>
<stop offset="0.402344" stop-color="rgb(80.912781%, 79.966736%, 79.460144%)" stop-opacity="1"/>
<stop offset="0.40625" stop-color="rgb(81.182861%, 80.244446%, 79.714966%)" stop-opacity="1"/>
<stop offset="0.410156" stop-color="rgb(81.404114%, 80.555725%, 79.989624%)" stop-opacity="1"/>
<stop offset="0.414062" stop-color="rgb(81.607056%, 80.880737%, 80.271912%)" stop-opacity="1"/>
<stop offset="0.417969" stop-color="rgb(81.811523%, 81.207275%, 80.555725%)" stop-opacity="1"/>
<stop offset="0.421875" stop-color="rgb(82.048035%, 81.47583%, 80.813599%)" stop-opacity="1"/>
<stop offset="0.425781" stop-color="rgb(82.333374%, 81.669617%, 81.036377%)" stop-opacity="1"/>
<stop offset="0.429688" stop-color="rgb(82.627869%, 81.840515%, 81.248474%)" stop-opacity="1"/>
<stop offset="0.433594" stop-color="rgb(82.946777%, 82.106018%, 81.546021%)" stop-opacity="1"/>
<stop offset="0.441406" stop-color="rgb(83.119202%, 82.376099%, 81.819153%)" stop-opacity="1"/>
<stop offset="0.445312" stop-color="rgb(83.125305%, 82.56073%, 81.980896%)" stop-opacity="1"/>
<stop offset="0.449219" stop-color="rgb(83.132935%, 82.746887%, 82.144165%)" stop-opacity="1"/>
<stop offset="0.453125" stop-color="rgb(83.287048%, 82.972717%, 82.35321%)" stop-opacity="1"/>
<stop offset="0.457031" stop-color="rgb(83.589172%, 83.239746%, 82.608032%)" stop-opacity="1"/>
<stop offset="0.460938" stop-color="rgb(83.889771%, 83.506775%, 82.862854%)" stop-opacity="1"/>
<stop offset="0.464844" stop-color="rgb(84.184265%, 83.758545%, 83.119202%)" stop-opacity="1"/>
<stop offset="0.46875" stop-color="rgb(84.42688%, 83.909607%, 83.383179%)" stop-opacity="1"/>
<stop offset="0.472656" stop-color="rgb(84.622192%, 83.972168%, 83.654785%)" stop-opacity="1"/>
<stop offset="0.476562" stop-color="rgb(84.819031%, 84.033203%, 83.924866%)" stop-opacity="1"/>
<stop offset="0.480469" stop-color="rgb(85.017395%, 84.121704%, 84.169006%)" stop-opacity="1"/>
<stop offset="0.484375" stop-color="rgb(85.218811%, 84.295654%, 84.318542%)" stop-opacity="1"/>
<stop offset="0.488281" stop-color="rgb(85.423279%, 84.533691%, 84.397888%)" stop-opacity="1"/>
<stop offset="0.492188" stop-color="rgb(85.626221%, 84.770203%, 84.477234%)" stop-opacity="1"/>
<stop offset="0.496094" stop-color="rgb(85.830688%, 85.009766%, 84.576416%)" stop-opacity="1"/>
<stop offset="0.5" stop-color="rgb(86.035156%, 85.250854%, 84.721375%)" stop-opacity="1"/>
<stop offset="0.503906" stop-color="rgb(86.24115%, 85.493469%, 84.890747%)" stop-opacity="1"/>
<stop offset="0.507812" stop-color="rgb(86.447144%, 85.736084%, 85.063171%)" stop-opacity="1"/>
<stop offset="0.511719" stop-color="rgb(86.651611%, 85.98175%, 85.258484%)" stop-opacity="1"/>
<stop offset="0.515625" stop-color="rgb(86.857605%, 86.228943%, 85.501099%)" stop-opacity="1"/>
<stop offset="0.519531" stop-color="rgb(87.063599%, 86.476135%, 85.765076%)" stop-opacity="1"/>
<stop offset="0.523438" stop-color="rgb(87.271118%, 86.724854%, 86.029053%)" stop-opacity="1"/>
<stop offset="0.527344" stop-color="rgb(87.477112%, 86.975098%, 86.294556%)" stop-opacity="1"/>
<stop offset="0.53125" stop-color="rgb(87.683105%, 87.223816%, 86.560059%)" stop-opacity="1"/>
<stop offset="0.535156" stop-color="rgb(87.890625%, 87.475586%, 86.827087%)" stop-opacity="1"/>
<stop offset="0.539062" stop-color="rgb(88.098145%, 87.72583%, 87.095642%)" stop-opacity="1"/>
<stop offset="0.542969" stop-color="rgb(88.261414%, 87.889099%, 87.330627%)" stop-opacity="1"/>
<stop offset="0.546875" stop-color="rgb(88.369751%, 87.944031%, 87.52594%)" stop-opacity="1"/>
<stop offset="0.550781" stop-color="rgb(88.468933%, 87.979126%, 87.712097%)" stop-opacity="1"/>
<stop offset="0.554688" stop-color="rgb(88.568115%, 88.014221%, 87.89978%)" stop-opacity="1"/>
<stop offset="0.558594" stop-color="rgb(88.717651%, 88.148499%, 88.038635%)" stop-opacity="1"/>
<stop offset="0.5625" stop-color="rgb(88.922119%, 88.388062%, 88.127136%)" stop-opacity="1"/>
<stop offset="0.566406" stop-color="rgb(89.131165%, 88.633728%, 88.212585%)" stop-opacity="1"/>
<stop offset="0.570312" stop-color="rgb(89.335632%, 88.879395%, 88.304138%)" stop-opacity="1"/>
<stop offset="0.574219" stop-color="rgb(89.491272%, 89.115906%, 88.490295%)" stop-opacity="1"/>
<stop offset="0.578125" stop-color="rgb(89.599609%, 89.341736%, 88.760376%)" stop-opacity="1"/>
<stop offset="0.582031" stop-color="rgb(89.709473%, 89.567566%, 89.030457%)" stop-opacity="1"/>
<stop offset="0.585938" stop-color="rgb(89.828491%, 89.796448%, 89.292908%)" stop-opacity="1"/>
<stop offset="0.589844" stop-color="rgb(89.99939%, 90.039062%, 89.509583%)" stop-opacity="1"/>
<stop offset="0.59375" stop-color="rgb(90.208435%, 90.292358%, 89.691162%)" stop-opacity="1"/>
<stop offset="0.597656" stop-color="rgb(90.41748%, 90.545654%, 89.874268%)" stop-opacity="1"/>
<stop offset="0.601562" stop-color="rgb(90.626526%, 90.765381%, 90.058899%)" stop-opacity="1"/>
<stop offset="0.605469" stop-color="rgb(90.829468%, 90.893555%, 90.249634%)" stop-opacity="1"/>
<stop offset="0.609375" stop-color="rgb(91.027832%, 90.959167%, 90.444946%)" stop-opacity="1"/>
<stop offset="0.613281" stop-color="rgb(91.227722%, 91.026306%, 90.641785%)" stop-opacity="1"/>
<stop offset="0.617188" stop-color="rgb(91.40625%, 91.131592%, 90.834045%)" stop-opacity="1"/>
<stop offset="0.621094" stop-color="rgb(91.539001%, 91.314697%, 91.017151%)" stop-opacity="1"/>
<stop offset="0.625" stop-color="rgb(91.650391%, 91.540527%, 91.200256%)" stop-opacity="1"/>
<stop offset="0.628906" stop-color="rgb(91.844177%, 91.830444%, 91.448975%)" stop-opacity="1"/>
<stop offset="0.636719" stop-color="rgb(92.082214%, 92.037964%, 91.65802%)" stop-opacity="1"/>
<stop offset="0.640625" stop-color="rgb(92.282104%, 92.102051%, 91.76178%)" stop-opacity="1"/>
<stop offset="0.644531" stop-color="rgb(92.549133%, 92.260742%, 91.981506%)" stop-opacity="1"/>
<stop offset="0.652344" stop-color="rgb(92.771912%, 92.503357%, 92.289734%)" stop-opacity="1"/>
<stop offset="0.65625" stop-color="rgb(92.883301%, 92.735291%, 92.570496%)" stop-opacity="1"/>
<stop offset="0.660156" stop-color="rgb(93.089294%, 93.011475%, 92.913818%)" stop-opacity="1"/>
<stop offset="0.667969" stop-color="rgb(93.341064%, 93.200684%, 93.170166%)" stop-opacity="1"/>
<stop offset="0.671875" stop-color="rgb(93.540955%, 93.266296%, 93.275452%)" stop-opacity="1"/>
<stop offset="0.675781" stop-color="rgb(93.742371%, 93.331909%, 93.380737%)" stop-opacity="1"/>
<stop offset="0.679688" stop-color="rgb(93.948364%, 93.496704%, 93.530273%)" stop-opacity="1"/>
<stop offset="0.683594" stop-color="rgb(94.158936%, 93.754578%, 93.719482%)" stop-opacity="1"/>
<stop offset="0.6875" stop-color="rgb(94.372559%, 94.015503%, 93.910217%)" stop-opacity="1"/>
<stop offset="0.691406" stop-color="rgb(94.630432%, 94.332886%, 94.171143%)" stop-opacity="1"/>
<stop offset="0.699219" stop-color="rgb(94.889832%, 94.656372%, 94.482422%)" stop-opacity="1"/>
<stop offset="0.707031" stop-color="rgb(95.172119%, 95.007324%, 94.865417%)" stop-opacity="1"/>
<stop offset="0.714844" stop-color="rgb(95.454407%, 95.362854%, 95.251465%)" stop-opacity="1"/>
<stop offset="0.71875" stop-color="rgb(95.755005%, 95.73822%, 95.661926%)" stop-opacity="1"/>
<stop offset="0.726562" stop-color="rgb(96.131897%, 96.212769%, 96.180725%)" stop-opacity="1"/>
<stop offset="0.742188" stop-color="rgb(96.383667%, 96.469116%, 96.504211%)" stop-opacity="1"/>
<stop offset="0.757812" stop-color="rgb(96.554565%, 96.530151%, 96.679688%)" stop-opacity="1"/>
<stop offset="0.761719" stop-color="rgb(96.755981%, 96.601868%, 96.888733%)" stop-opacity="1"/>
<stop offset="0.765625" stop-color="rgb(96.957397%, 96.673584%, 97.097778%)" stop-opacity="1"/>
<stop offset="0.769531" stop-color="rgb(97.123718%, 96.810913%, 97.259521%)" stop-opacity="1"/>
<stop offset="0.773438" stop-color="rgb(97.247314%, 97.027588%, 97.364807%)" stop-opacity="1"/>
<stop offset="0.777344" stop-color="rgb(97.361755%, 97.259521%, 97.460938%)" stop-opacity="1"/>
<stop offset="0.78125" stop-color="rgb(97.476196%, 97.491455%, 97.555542%)" stop-opacity="1"/>
<stop offset="0.785156" stop-color="rgb(97.695923%, 97.814941%, 97.825623%)" stop-opacity="1"/>
<stop offset="0.796875" stop-color="rgb(97.973633%, 98.167419%, 98.210144%)" stop-opacity="1"/>
<stop offset="0.820312" stop-color="rgb(98.197937%, 98.452759%, 98.524475%)" stop-opacity="1"/>
<stop offset="0.828125" stop-color="rgb(98.410034%, 98.655701%, 98.728943%)" stop-opacity="1"/>
<stop offset="0.835938" stop-color="rgb(98.614502%, 98.753357%, 98.786926%)" stop-opacity="1"/>
<stop offset="0.84375" stop-color="rgb(98.822021%, 98.898315%, 98.907471%)" stop-opacity="1"/>
<stop offset="0.851562" stop-color="rgb(99.03717%, 99.147034%, 99.1745%)" stop-opacity="1"/>
<stop offset="0.859375" stop-color="rgb(99.255371%, 99.424744%, 99.479675%)" stop-opacity="1"/>
<stop offset="0.867188" stop-color="rgb(99.472046%, 99.702454%, 99.786377%)" stop-opacity="1"/>
<stop offset="0.875" stop-color="rgb(99.682617%, 99.885559%, 99.961853%)" stop-opacity="1"/>
<stop offset="0.882812" stop-color="rgb(99.893188%, 99.964905%, 99.992371%)" stop-opacity="1"/>
<stop offset="1" stop-color="rgb(100%, 100%, 100%)" stop-opacity="1"/>
</radialGradient>
<clipPath id="clip-6">
<path clip-rule="nonzero" d="M 474 223 L 1274 223 L 1274 1896 L 474 1896 Z M 474 223 "/>
</clipPath>
<clipPath id="clip-7">
<path clip-rule="nonzero" d="M 1052.851562 1895.730469 L 1052.53125 1895.140625 L 1052.378906 1895.730469 L 1051.949219 1894.078125 L 1009.941406 1817.351562 L 576.167969 1025 L 578.550781 1025 C 512.976562 931.269531 474.480469 817.191406 474.480469 694.171875 C 474.480469 694.03125 474.480469 693.890625 474.480469 693.75 C 474.480469 693.71875 474.480469 693.699219 474.480469 693.671875 C 474.480469 693.53125 474.480469 693.398438 474.480469 693.261719 C 474.480469 693.238281 474.480469 693.21875 474.480469 693.191406 C 474.480469 693.058594 474.480469 692.921875 474.480469 692.789062 C 474.480469 692.769531 474.480469 692.769531 474.480469 692.761719 C 474.480469 692.628906 474.484375 692.480469 474.484375 692.351562 C 474.484375 692.308594 474.484375 692.300781 474.484375 692.261719 C 474.484375 692.128906 474.484375 691.988281 474.484375 691.859375 C 474.484375 691.828125 474.484375 691.808594 474.484375 691.789062 C 474.484375 691.660156 474.484375 691.53125 474.488281 691.398438 C 474.488281 691.390625 474.488281 691.371094 474.488281 691.359375 C 474.488281 691.210938 474.488281 691.089844 474.488281 690.941406 C 474.488281 690.921875 474.488281 690.878906 474.488281 690.859375 C 474.488281 690.710938 474.492188 690.589844 474.492188 690.449219 C 474.492188 690.429688 474.492188 690.410156 474.492188 690.398438 C 474.492188 690.269531 474.492188 690.148438 474.496094 690.019531 C 474.496094 689.988281 474.496094 689.96875 474.496094 689.941406 C 474.496094 689.808594 474.496094 689.679688 474.496094 689.550781 C 474.5 689.511719 474.5 689.488281 474.5 689.449219 C 474.5 689.320312 474.5 689.179688 474.503906 689.050781 C 474.503906 689.019531 474.503906 689.011719 474.503906 688.988281 C 474.503906 688.859375 474.503906 688.738281 474.507812 688.609375 C 474.507812 688.589844 474.507812 688.570312 474.507812 688.539062 C 474.507812 688.410156 474.511719 688.269531 474.511719 688.140625 C 474.511719 688.109375 474.511719 688.070312 474.511719 688.050781 C 474.515625 687.769531 474.519531 687.5 474.519531 687.21875 C 474.519531 687.199219 474.523438 687.160156 474.523438 687.140625 C 474.523438 686.988281 474.523438 686.878906 474.527344 686.730469 C 474.527344 686.710938 474.527344 686.671875 474.527344 686.648438 C 474.53125 686.519531 474.53125 686.398438 474.53125 686.269531 C 474.53125 686.261719 474.535156 686.230469 474.535156 686.21875 C 474.535156 686.089844 474.535156 685.960938 474.539062 685.828125 C 474.539062 685.789062 474.539062 685.761719 474.539062 685.71875 C 474.542969 685.589844 474.542969 685.46875 474.546875 685.339844 C 474.546875 685.308594 474.546875 685.261719 474.546875 685.230469 C 474.550781 685.109375 474.550781 685 474.554688 684.878906 C 474.554688 684.859375 474.554688 684.851562 474.554688 684.820312 C 474.554688 684.691406 474.558594 684.558594 474.5625 684.429688 C 474.5625 684.398438 474.5625 684.359375 474.5625 684.320312 C 474.566406 684.191406 474.566406 684.058594 474.570312 683.929688 C 474.570312 683.910156 474.570312 683.871094 474.570312 683.851562 C 474.574219 683.730469 474.574219 683.621094 474.578125 683.5 C 474.578125 683.480469 474.578125 683.441406 474.578125 683.410156 C 474.582031 683.289062 474.582031 683.160156 474.585938 683.03125 C 474.585938 682.988281 474.585938 682.960938 474.589844 682.921875 C 474.589844 682.789062 474.59375 682.660156 474.59375 682.53125 C 474.597656 682.5 474.597656 682.488281 474.597656 682.460938 C 474.597656 682.351562 474.601562 682.210938 474.605469 682.109375 C 474.605469 682.070312 474.605469 682.050781 474.605469 682.011719 C 474.609375 681.878906 474.609375 681.761719 474.613281 681.628906 C 474.613281 681.601562 474.613281 681.550781 474.617188 681.519531 C 474.617188 681.390625 474.621094 681.261719 474.625 681.128906 C 474.625 681.109375 474.625 681.089844 474.625 681.070312 C 474.628906 680.949219 474.632812 680.839844 474.632812 680.71875 C 474.632812 680.691406 474.636719 680.640625 474.636719 680.609375 C 474.640625 680.480469 474.640625 680.351562 474.644531 680.21875 C 474.644531 680.199219 474.648438 680.148438 474.648438 680.128906 C 474.652344 680 474.652344 679.871094 474.65625 679.738281 C 474.65625 679.71875 474.65625 679.71875 474.65625 679.699219 C 474.660156 679.570312 474.664062 679.441406 474.667969 679.308594 C 474.667969 679.28125 474.667969 679.238281 474.671875 679.21875 C 474.671875 679.089844 474.675781 678.960938 474.679688 678.828125 C 474.679688 678.789062 474.683594 678.761719 474.683594 678.71875 C 474.6875 678.621094 474.6875 678.511719 474.691406 678.398438 C 474.691406 678.351562 474.691406 678.320312 474.695312 678.28125 C 474.699219 678.160156 474.699219 678.050781 474.703125 677.941406 C 474.703125 677.898438 474.707031 677.839844 474.707031 677.800781 C 474.710938 677.671875 474.714844 677.558594 474.71875 677.429688 C 474.71875 677.398438 474.71875 677.359375 474.722656 677.320312 C 474.722656 677.230469 474.726562 677.109375 474.730469 677.019531 C 474.730469 676.96875 474.730469 676.949219 474.734375 676.898438 C 474.738281 676.78125 474.742188 676.660156 474.742188 676.539062 C 474.746094 676.5 474.746094 676.441406 474.746094 676.398438 C 474.753906 676.28125 474.753906 676.179688 474.757812 676.058594 C 474.761719 676.019531 474.761719 675.949219 474.765625 675.898438 C 474.765625 675.808594 474.769531 675.730469 474.773438 675.628906 C 474.773438 675.589844 474.773438 675.550781 474.777344 675.5 C 474.78125 675.378906 474.785156 675.269531 474.789062 675.148438 C 474.789062 675.101562 474.789062 675.039062 474.792969 674.988281 C 474.796875 674.878906 474.800781 674.761719 474.804688 674.640625 C 474.804688 674.609375 474.808594 674.570312 474.808594 674.53125 C 474.8125 674.441406 474.8125 674.328125 474.816406 674.238281 C 474.820312 674.191406 474.820312 674.148438 474.820312 674.101562 C 474.824219 673.980469 474.828125 673.871094 474.835938 673.75 C 474.835938 673.691406 474.839844 673.660156 474.839844 673.601562 C 474.84375 673.511719 474.847656 673.390625 474.851562 673.300781 C 474.851562 673.238281 474.855469 673.191406 474.855469 673.140625 C 474.859375 673.039062 474.863281 672.941406 474.867188 672.851562 C 474.867188 672.800781 474.871094 672.75 474.871094 672.699219 C 474.875 672.578125 474.878906 672.46875 474.886719 672.351562 C 474.886719 672.308594 474.886719 672.25 474.890625 672.199219 C 474.894531 672.109375 474.898438 672.011719 474.902344 671.921875 C 474.902344 671.859375 474.90625 671.820312 474.90625 671.761719 C 474.910156 671.671875 474.914062 671.558594 474.917969 671.460938 C 474.921875 671.410156 474.921875 671.359375 474.925781 671.300781 C 474.929688 671.199219 474.933594 671.070312 474.9375 670.960938 C 474.941406 670.898438 474.941406 670.871094 474.945312 670.808594 C 474.945312 670.730469 474.949219 670.640625 474.953125 670.550781 C 474.957031 670.480469 474.960938 670.421875 474.960938 670.359375 C 474.964844 670.261719 474.96875 670.160156 474.972656 670.058594 C 474.976562 670.011719 474.980469 669.960938 474.980469 669.910156 C 474.984375 669.789062 474.988281 669.679688 474.996094 669.558594 C 474.996094 669.511719 475 669.46875 475 669.410156 C 475.003906 669.339844 475.007812 669.238281 475.011719 669.171875 C 475.015625 669.109375 475.015625 669.058594 475.019531 669 C 475.023438 668.890625 475.027344 668.789062 475.03125 668.679688 C 475.035156 668.621094 475.039062 668.558594 475.039062 668.511719 C 475.042969 668.410156 475.046875 668.320312 475.054688 668.21875 C 475.054688 668.148438 475.058594 668.078125 475.0625 668.011719 C 475.066406 667.929688 475.066406 667.871094 475.070312 667.78125 C 475.074219 667.730469 475.078125 667.671875 475.078125 667.609375 C 475.085938 667.5 475.089844 667.398438 475.09375 667.289062 C 475.097656 667.21875 475.101562 667.160156 475.105469 667.089844 C 475.105469 667.03125 475.109375 666.96875 475.113281 666.910156 C 475.117188 666.800781 475.121094 666.699219 475.128906 666.589844 C 475.128906 666.53125 475.132812 666.46875 475.136719 666.410156 C 475.140625 666.339844 475.140625 666.28125 475.144531 666.210938 C 475.148438 666.109375 475.15625 666 475.160156 665.910156 C 475.164062 665.839844 475.164062 665.769531 475.171875 665.699219 C 475.171875 665.628906 475.175781 665.578125 475.179688 665.511719 C 475.183594 665.421875 475.1875 665.300781 475.195312 665.199219 C 475.195312 665.128906 475.199219 665.089844 475.203125 665.019531 C 475.207031 664.949219 475.210938 664.878906 475.214844 664.808594 C 475.21875 664.710938 475.222656 664.601562 475.230469 664.511719 C 475.230469 664.441406 475.234375 664.371094 475.238281 664.300781 C 475.242188 664.238281 475.242188 664.199219 475.246094 664.140625 C 475.253906 664.019531 475.261719 663.890625 475.265625 663.78125 C 475.269531 663.730469 475.269531 663.691406 475.273438 663.640625 C 475.277344 663.558594 475.28125 663.488281 475.285156 663.410156 C 475.285156 663.371094 475.289062 663.320312 475.292969 663.28125 C 475.300781 663.160156 475.304688 663.011719 475.3125 662.890625 C 475.316406 662.839844 475.316406 662.820312 475.320312 662.769531 C 475.328125 662.628906 475.335938 662.46875 475.34375 662.328125 C 475.34375 662.308594 475.347656 662.28125 475.347656 662.261719 C 475.351562 662.160156 475.355469 662.089844 475.359375 661.988281 C 475.363281 661.980469 475.363281 661.980469 475.363281 661.96875 C 475.371094 661.808594 475.382812 661.640625 475.390625 661.46875 C 475.390625 661.449219 475.394531 661.421875 475.394531 661.390625 C 475.410156 661.128906 475.425781 660.871094 475.4375 660.609375 C 475.441406 660.589844 475.441406 660.558594 475.441406 660.539062 C 475.453125 660.378906 475.460938 660.21875 475.46875 660.058594 C 475.472656 660.039062 475.472656 660.03125 475.472656 660.011719 C 485.96875 480.128906 578.769531 322.308594 716.753906 223.691406 C 680.59375 280.820312 651.429688 341.871094 630.277344 405.929688 C 573.714844 487.980469 540.542969 587.308594 540.542969 694.171875 C 540.542969 845.460938 607.019531 981.671875 712.257812 1075.101562 C 832.3125 1269 1032.511719 1418.769531 1273.578125 1489.769531 L 1095.441406 1817.398438 L 1052.851562 1895.730469 "/>
</clipPath>
<clipPath id="clip-8">
<path clip-rule="nonzero" d="M 1052.851562 1895.730469 L 1052.53125 1895.140625 L 1052.378906 1895.730469 L 1051.949219 1894.078125 L 1009.941406 1817.351562 L 576.167969 1025 L 578.550781 1025 C 512.976562 931.269531 474.480469 817.191406 474.480469 694.171875 C 474.480469 694.03125 474.480469 693.890625 474.480469 693.75 C 474.480469 693.71875 474.480469 693.699219 474.480469 693.671875 C 474.480469 693.53125 474.480469 693.398438 474.480469 693.261719 C 474.480469 693.238281 474.480469 693.21875 474.480469 693.191406 C 474.480469 693.058594 474.480469 692.921875 474.480469 692.789062 C 474.480469 692.769531 474.480469 692.769531 474.480469 692.761719 C 474.480469 692.628906 474.484375 692.480469 474.484375 692.351562 C 474.484375 692.308594 474.484375 692.300781 474.484375 692.261719 C 474.484375 692.128906 474.484375 691.988281 474.484375 691.859375 C 474.484375 691.828125 474.484375 691.808594 474.484375 691.789062 C 474.484375 691.660156 474.484375 691.53125 474.488281 691.398438 C 474.488281 691.390625 474.488281 691.371094 474.488281 691.359375 C 474.488281 691.210938 474.488281 691.089844 474.488281 690.941406 C 474.488281 690.921875 474.488281 690.878906 474.488281 690.859375 C 474.488281 690.710938 474.492188 690.589844 474.492188 690.449219 C 474.492188 690.429688 474.492188 690.410156 474.492188 690.398438 C 474.492188 690.269531 474.492188 690.148438 474.496094 690.019531 C 474.496094 689.988281 474.496094 689.96875 474.496094 689.941406 C 474.496094 689.808594 474.496094 689.679688 474.496094 689.550781 C 474.5 689.511719 474.5 689.488281 474.5 689.449219 C 474.5 689.320312 474.5 689.179688 474.503906 689.050781 C 474.503906 689.019531 474.503906 689.011719 474.503906 688.988281 C 474.503906 688.859375 474.503906 688.738281 474.507812 688.609375 C 474.507812 688.589844 474.507812 688.570312 474.507812 688.539062 C 474.507812 688.410156 474.511719 688.269531 474.511719 688.140625 C 474.511719 688.109375 474.511719 688.070312 474.511719 688.050781 C 474.515625 687.769531 474.519531 687.5 474.519531 687.21875 C 474.519531 687.199219 474.523438 687.160156 474.523438 687.140625 C 474.523438 686.988281 474.523438 686.878906 474.527344 686.730469 C 474.527344 686.710938 474.527344 686.671875 474.527344 686.648438 C 474.53125 686.519531 474.53125 686.398438 474.53125 686.269531 C 474.53125 686.261719 474.535156 686.230469 474.535156 686.21875 C 474.535156 686.089844 474.535156 685.960938 474.539062 685.828125 C 474.539062 685.789062 474.539062 685.761719 474.539062 685.71875 C 474.542969 685.589844 474.542969 685.46875 474.546875 685.339844 C 474.546875 685.308594 474.546875 685.261719 474.546875 685.230469 C 474.550781 685.109375 474.550781 685 474.554688 684.878906 C 474.554688 684.859375 474.554688 684.851562 474.554688 684.820312 C 474.554688 684.691406 474.558594 684.558594 474.5625 684.429688 C 474.5625 684.398438 474.5625 684.359375 474.5625 684.320312 C 474.566406 684.191406 474.566406 684.058594 474.570312 683.929688 C 474.570312 683.910156 474.570312 683.871094 474.570312 683.851562 C 474.574219 683.730469 474.574219 683.621094 474.578125 683.5 C 474.578125 683.480469 474.578125 683.441406 474.578125 683.410156 C 474.582031 683.289062 474.582031 683.160156 474.585938 683.03125 C 474.585938 682.988281 474.585938 682.960938 474.589844 682.921875 C 474.589844 682.789062 474.59375 682.660156 474.59375 682.53125 C 474.597656 682.5 474.597656 682.488281 474.597656 682.460938 C 474.597656 682.351562 474.601562 682.210938 474.605469 682.109375 C 474.605469 682.070312 474.605469 682.050781 474.605469 682.011719 C 474.609375 681.878906 474.609375 681.761719 474.613281 681.628906 C 474.613281 681.601562 474.613281 681.550781 474.617188 681.519531 C 474.617188 681.390625 474.621094 681.261719 474.625 681.128906 C 474.625 681.109375 474.625 681.089844 474.625 681.070312 C 474.628906 680.949219 474.632812 680.839844 474.632812 680.71875 C 474.632812 680.691406 474.636719 680.640625 474.636719 680.609375 C 474.640625 680.480469 474.640625 680.351562 474.644531 680.21875 C 474.644531 680.199219 474.648438 680.148438 474.648438 680.128906 C 474.652344 680 474.652344 679.871094 474.65625 679.738281 C 474.65625 679.71875 474.65625 679.71875 474.65625 679.699219 C 474.660156 679.570312 474.664062 679.441406 474.667969 679.308594 C 474.667969 679.28125 474.667969 679.238281 474.671875 679.21875 C 474.671875 679.089844 474.675781 678.960938 474.679688 678.828125 C 474.679688 678.789062 474.683594 678.761719 474.683594 678.71875 C 474.6875 678.621094 474.6875 678.511719 474.691406 678.398438 C 474.691406 678.351562 474.691406 678.320312 474.695312 678.28125 C 474.699219 678.160156 474.699219 678.050781 474.703125 677.941406 C 474.703125 677.898438 474.707031 677.839844 474.707031 677.800781 C 474.710938 677.671875 474.714844 677.558594 474.71875 677.429688 C 474.71875 677.398438 474.71875 677.359375 474.722656 677.320312 C 474.722656 677.230469 474.726562 677.109375 474.730469 677.019531 C 474.730469 676.96875 474.730469 676.949219 474.734375 676.898438 C 474.738281 676.78125 474.742188 676.660156 474.742188 676.539062 C 474.746094 676.5 474.746094 676.441406 474.746094 676.398438 C 474.753906 676.28125 474.753906 676.179688 474.757812 676.058594 C 474.761719 676.019531 474.761719 675.949219 474.765625 675.898438 C 474.765625 675.808594 474.769531 675.730469 474.773438 675.628906 C 474.773438 675.589844 474.773438 675.550781 474.777344 675.5 C 474.78125 675.378906 474.785156 675.269531 474.789062 675.148438 C 474.789062 675.101562 474.789062 675.039062 474.792969 674.988281 C 474.796875 674.878906 474.800781 674.761719 474.804688 674.640625 C 474.804688 674.609375 474.808594 674.570312 474.808594 674.53125 C 474.8125 674.441406 474.8125 674.328125 474.816406 674.238281 C 474.820312 674.191406 474.820312 674.148438 474.820312 674.101562 C 474.824219 673.980469 474.828125 673.871094 474.835938 673.75 C 474.835938 673.691406 474.839844 673.660156 474.839844 673.601562 C 474.84375 673.511719 474.847656 673.390625 474.851562 673.300781 C 474.851562 673.238281 474.855469 673.191406 474.855469 673.140625 C 474.859375 673.039062 474.863281 672.941406 474.867188 672.851562 C 474.867188 672.800781 474.871094 672.75 474.871094 672.699219 C 474.875 672.578125 474.878906 672.46875 474.886719 672.351562 C 474.886719 672.308594 474.886719 672.25 474.890625 672.199219 C 474.894531 672.109375 474.898438 672.011719 474.902344 671.921875 C 474.902344 671.859375 474.90625 671.820312 474.90625 671.761719 C 474.910156 671.671875 474.914062 671.558594 474.917969 671.460938 C 474.921875 671.410156 474.921875 671.359375 474.925781 671.300781 C 474.929688 671.199219 474.933594 671.070312 474.9375 670.960938 C 474.941406 670.898438 474.941406 670.871094 474.945312 670.808594 C 474.945312 670.730469 474.949219 670.640625 474.953125 670.550781 C 474.957031 670.480469 474.960938 670.421875 474.960938 670.359375 C 474.964844 670.261719 474.96875 670.160156 474.972656 670.058594 C 474.976562 670.011719 474.980469 669.960938 474.980469 669.910156 C 474.984375 669.789062 474.988281 669.679688 474.996094 669.558594 C 474.996094 669.511719 475 669.46875 475 669.410156 C 475.003906 669.339844 475.007812 669.238281 475.011719 669.171875 C 475.015625 669.109375 475.015625 669.058594 475.019531 669 C 475.023438 668.890625 475.027344 668.789062 475.03125 668.679688 C 475.035156 668.621094 475.039062 668.558594 475.039062 668.511719 C 475.042969 668.410156 475.046875 668.320312 475.054688 668.21875 C 475.054688 668.148438 475.058594 668.078125 475.0625 668.011719 C 475.066406 667.929688 475.066406 667.871094 475.070312 667.78125 C 475.074219 667.730469 475.078125 667.671875 475.078125 667.609375 C 475.085938 667.5 475.089844 667.398438 475.09375 667.289062 C 475.097656 667.21875 475.101562 667.160156 475.105469 667.089844 C 475.105469 667.03125 475.109375 666.96875 475.113281 666.910156 C 475.117188 666.800781 475.121094 666.699219 475.128906 666.589844 C 475.128906 666.53125 475.132812 666.46875 475.136719 666.410156 C 475.140625 666.339844 475.140625 666.28125 475.144531 666.210938 C 475.148438 666.109375 475.15625 666 475.160156 665.910156 C 475.164062 665.839844 475.164062 665.769531 475.171875 665.699219 C 475.171875 665.628906 475.175781 665.578125 475.179688 665.511719 C 475.183594 665.421875 475.1875 665.300781 475.195312 665.199219 C 475.195312 665.128906 475.199219 665.089844 475.203125 665.019531 C 475.207031 664.949219 475.210938 664.878906 475.214844 664.808594 C 475.21875 664.710938 475.222656 664.601562 475.230469 664.511719 C 475.230469 664.441406 475.234375 664.371094 475.238281 664.300781 C 475.242188 664.238281 475.242188 664.199219 475.246094 664.140625 C 475.253906 664.019531 475.261719 663.890625 475.265625 663.78125 C 475.269531 663.730469 475.269531 663.691406 475.273438 663.640625 C 475.277344 663.558594 475.28125 663.488281 475.285156 663.410156 C 475.285156 663.371094 475.289062 663.320312 475.292969 663.28125 C 475.300781 663.160156 475.304688 663.011719 475.3125 662.890625 C 475.316406 662.839844 475.316406 662.820312 475.320312 662.769531 C 475.328125 662.628906 475.335938 662.46875 475.34375 662.328125 C 475.34375 662.308594 475.347656 662.28125 475.347656 662.261719 C 475.351562 662.160156 475.355469 662.089844 475.359375 661.988281 C 475.363281 661.980469 475.363281 661.980469 475.363281 661.96875 C 475.371094 661.808594 475.382812 661.640625 475.390625 661.46875 C 475.390625 661.449219 475.394531 661.421875 475.394531 661.390625 C 475.410156 661.128906 475.425781 660.871094 475.4375 660.609375 C 475.441406 660.589844 475.441406 660.558594 475.441406 660.539062 C 475.453125 660.378906 475.460938 660.21875 475.46875 660.058594 C 475.472656 660.039062 475.472656 660.03125 475.472656 660.011719 C 485.96875 480.128906 578.769531 322.308594 716.753906 223.691406 C 680.59375 280.820312 651.429688 341.871094 630.277344 405.929688 C 573.714844 487.980469 540.542969 587.308594 540.542969 694.171875 C 540.542969 845.460938 607.019531 981.671875 712.257812 1075.101562 C 832.3125 1269 1032.511719 1418.769531 1273.578125 1489.769531 L 1095.441406 1817.398438 L 1052.851562 1895.730469 "/>
</clipPath>
<radialGradient id="radial-pattern-1" gradientUnits="userSpaceOnUse" cx="0" cy="0" fx="0" fy="0" r="655.196" gradientTransform="matrix(1, 0, 0, 1, 874.029, 1059.71)">
<stop offset="0" stop-color="rgb(9.431458%, 7.801819%, 7.546997%)" stop-opacity="1"/>
<stop offset="1" stop-color="rgb(9.431458%, 7.801819%, 7.546997%)" stop-opacity="1"/>
</radialGradient>
<clipPath id="clip-9">
<path clip-rule="nonzero" d="M 641 283 L 1459 283 L 1459 1111 L 641 1111 Z M 641 283 "/>
</clipPath>
<clipPath id="clip-10">
<path clip-rule="nonzero" d="M 1050.25 1110.410156 C 824.15625 1110.410156 641.148438 925.308594 641.148438 697.03125 C 641.148438 468.859375 824.15625 283.660156 1050.25 283.660156 C 1275.851562 283.660156 1458.820312 468.859375 1458.820312 697.03125 C 1458.820312 925.308594 1275.851562 1110.410156 1050.25 1110.410156 M 1050.191406 561.738281 C 1169.710938 561.738281 1274.28125 621.148438 1331.449219 621.148438 C 1360.769531 621.140625 1377.621094 605.519531 1377.621094 558.238281 C 1377.621094 418.820312 1231 305.671875 1050.191406 305.671875 C 869 305.671875 722.351562 418.820312 722.351562 558.238281 C 722.351562 605.53125 739.199219 621.148438 768.546875 621.148438 C 825.753906 621.148438 930.433594 561.738281 1050.191406 561.738281 "/>
</clipPath>
<clipPath id="clip-11">
<path clip-rule="nonzero" d="M 1050.25 1110.410156 C 824.15625 1110.410156 641.148438 925.308594 641.148438 697.03125 C 641.148438 468.859375 824.15625 283.660156 1050.25 283.660156 C 1275.851562 283.660156 1458.820312 468.859375 1458.820312 697.03125 C 1458.820312 925.308594 1275.851562 1110.410156 1050.25 1110.410156 M 1050.191406 561.738281 C 1169.710938 561.738281 1274.28125 621.148438 1331.449219 621.148438 C 1360.769531 621.140625 1377.621094 605.519531 1377.621094 558.238281 C 1377.621094 418.820312 1231 305.671875 1050.191406 305.671875 C 869 305.671875 722.351562 418.820312 722.351562 558.238281 C 722.351562 605.53125 739.199219 621.148438 768.546875 621.148438 C 825.753906 621.148438 930.433594 561.738281 1050.191406 561.738281 "/>
</clipPath>
<radialGradient id="radial-pattern-2" gradientUnits="userSpaceOnUse" cx="0" cy="0" fx="0" fy="0" r="411.111" gradientTransform="matrix(1, 0, 0, 1, 1049.98, 697.04)">
<stop offset="0" stop-color="rgb(92.564392%, 11.421204%, 15.110779%)" stop-opacity="1"/>
<stop offset="0.015625" stop-color="rgb(92.321777%, 11.491394%, 14.997864%)" stop-opacity="1"/>
<stop offset="0.0273438" stop-color="rgb(92.172241%, 11.457825%, 14.944458%)" stop-opacity="1"/>
<stop offset="0.0390625" stop-color="rgb(92.092896%, 11.31134%, 14.938354%)" stop-opacity="1"/>
<stop offset="0.0507812" stop-color="rgb(91.955566%, 11.262512%, 14.892578%)" stop-opacity="1"/>
<stop offset="0.0625" stop-color="rgb(91.748047%, 11.323547%, 14.796448%)" stop-opacity="1"/>
<stop offset="0.0742188" stop-color="rgb(91.592407%, 11.299133%, 14.73999%)" stop-opacity="1"/>
<stop offset="0.0859375" stop-color="rgb(91.491699%, 11.151123%, 14.730835%)" stop-opacity="1"/>
<stop offset="0.0976562" stop-color="rgb(91.223145%, 11.073303%, 14.663696%)" stop-opacity="1"/>
<stop offset="0.109375" stop-color="rgb(90.887451%, 11.114502%, 14.544678%)" stop-opacity="1"/>
<stop offset="0.121094" stop-color="rgb(90.713501%, 11.166382%, 14.442444%)" stop-opacity="1"/>
<stop offset="0.132812" stop-color="rgb(90.545654%, 11.218262%, 14.352417%)" stop-opacity="1"/>
<stop offset="0.15625" stop-color="rgb(90.324402%, 11.264038%, 14.328003%)" stop-opacity="1"/>
<stop offset="0.167969" stop-color="rgb(90.153503%, 11.288452%, 14.347839%)" stop-opacity="1"/>
<stop offset="0.191406" stop-color="rgb(89.984131%, 11.31134%, 14.36615%)" stop-opacity="1"/>
<stop offset="0.203125" stop-color="rgb(89.776611%, 11.341858%, 14.390564%)" stop-opacity="1"/>
<stop offset="0.214844" stop-color="rgb(89.605713%, 11.366272%, 14.4104%)" stop-opacity="1"/>
<stop offset="0.238281" stop-color="rgb(89.434814%, 11.390686%, 14.430237%)" stop-opacity="1"/>
<stop offset="0.25" stop-color="rgb(89.228821%, 11.419678%, 14.453125%)" stop-opacity="1"/>
<stop offset="0.261719" stop-color="rgb(89.056396%, 11.444092%, 14.472961%)" stop-opacity="1"/>
<stop offset="0.269531" stop-color="rgb(88.917542%, 11.463928%, 14.489746%)" stop-opacity="1"/>
<stop offset="0.277344" stop-color="rgb(88.774109%, 11.483765%, 14.505005%)" stop-opacity="1"/>
<stop offset="0.296875" stop-color="rgb(88.430786%, 11.491394%, 14.501953%)" stop-opacity="1"/>
<stop offset="0.316406" stop-color="rgb(88.082886%, 11.497498%, 14.49585%)" stop-opacity="1"/>
<stop offset="0.324219" stop-color="rgb(87.921143%, 11.517334%, 14.511108%)" stop-opacity="1"/>
<stop offset="0.34375" stop-color="rgb(87.718201%, 11.546326%, 14.535522%)" stop-opacity="1"/>
<stop offset="0.363281" stop-color="rgb(87.561035%, 11.567688%, 14.552307%)" stop-opacity="1"/>
<stop offset="0.382812" stop-color="rgb(87.376404%, 11.590576%, 14.569092%)" stop-opacity="1"/>
<stop offset="0.398438" stop-color="rgb(86.965942%, 11.604309%, 14.570618%)" stop-opacity="1"/>
<stop offset="0.414062" stop-color="rgb(86.697388%, 11.602783%, 14.559937%)" stop-opacity="1"/>
<stop offset="0.429688" stop-color="rgb(86.550903%, 11.624146%, 14.576721%)" stop-opacity="1"/>
<stop offset="0.445312" stop-color="rgb(86.274719%, 11.662292%, 14.607239%)" stop-opacity="1"/>
<stop offset="0.476562" stop-color="rgb(85.856628%, 11.677551%, 14.610291%)" stop-opacity="1"/>
<stop offset="0.492188" stop-color="rgb(85.438538%, 11.694336%, 14.613342%)" stop-opacity="1"/>
<stop offset="0.523438" stop-color="rgb(85.202026%, 11.727905%, 14.639282%)" stop-opacity="1"/>
<stop offset="0.535156" stop-color="rgb(85.00061%, 11.755371%, 14.66217%)" stop-opacity="1"/>
<stop offset="0.546875" stop-color="rgb(84.794617%, 11.776733%, 14.677429%)" stop-opacity="1"/>
<stop offset="0.558594" stop-color="rgb(84.446716%, 11.782837%, 14.671326%)" stop-opacity="1"/>
<stop offset="0.585938" stop-color="rgb(84.136963%, 11.790466%, 14.6698%)" stop-opacity="1"/>
<stop offset="0.609375" stop-color="rgb(83.950806%, 11.811829%, 14.685059%)" stop-opacity="1"/>
<stop offset="0.621094" stop-color="rgb(83.583069%, 11.819458%, 14.682007%)" stop-opacity="1"/>
<stop offset="0.644531" stop-color="rgb(83.222961%, 11.831665%, 14.682007%)" stop-opacity="1"/>
<stop offset="0.664062" stop-color="rgb(83.03833%, 11.843872%, 14.68811%)" stop-opacity="1"/>
<stop offset="0.671875" stop-color="rgb(82.795715%, 11.834717%, 14.6698%)" stop-opacity="1"/>
<stop offset="0.691406" stop-color="rgb(82.484436%, 11.824036%, 14.649963%)" stop-opacity="1"/>
<stop offset="0.707031" stop-color="rgb(82.209778%, 11.819458%, 14.63623%)" stop-opacity="1"/>
<stop offset="0.722656" stop-color="rgb(81.864929%, 11.825562%, 14.630127%)" stop-opacity="1"/>
<stop offset="0.738281" stop-color="rgb(81.454468%, 11.839294%, 14.631653%)" stop-opacity="1"/>
<stop offset="0.769531" stop-color="rgb(81.150818%, 11.851501%, 14.633179%)" stop-opacity="1"/>
<stop offset="0.78125" stop-color="rgb(80.810547%, 11.854553%, 14.627075%)" stop-opacity="1"/>
<stop offset="0.808594" stop-color="rgb(80.46875%, 11.839294%, 14.598083%)" stop-opacity="1"/>
<stop offset="0.820312" stop-color="rgb(80.195618%, 11.833191%, 14.584351%)" stop-opacity="1"/>
<stop offset="0.839844" stop-color="rgb(79.904175%, 11.842346%, 14.584351%)" stop-opacity="1"/>
<stop offset="0.847656" stop-color="rgb(79.615784%, 11.839294%, 14.570618%)" stop-opacity="1"/>
<stop offset="0.863281" stop-color="rgb(79.350281%, 11.834717%, 14.556885%)" stop-opacity="1"/>
<stop offset="0.878906" stop-color="rgb(79.048157%, 11.828613%, 14.5401%)" stop-opacity="1"/>
<stop offset="0.90625" stop-color="rgb(78.6026%, 11.819458%, 14.517212%)" stop-opacity="1"/>
<stop offset="0.929688" stop-color="rgb(78.20282%, 11.811829%, 14.494324%)" stop-opacity="1"/>
<stop offset="0.945312" stop-color="rgb(77.853394%, 11.804199%, 14.476013%)" stop-opacity="1"/>
<stop offset="0.972656" stop-color="rgb(77.458191%, 11.795044%, 14.453125%)" stop-opacity="1"/>
<stop offset="0.984375" stop-color="rgb(77.122498%, 11.766052%, 14.411926%)" stop-opacity="1"/>
<stop offset="1" stop-color="rgb(76.986694%, 11.741638%, 14.382935%)" stop-opacity="1"/>
</radialGradient>
<clipPath id="clip-12">
<path clip-rule="nonzero" d="M 722 305 L 1378 305 L 1378 622 L 722 622 Z M 722 305 "/>
</clipPath>
<clipPath id="clip-13">
<path clip-rule="nonzero" d="M 1331.449219 621.148438 C 1274.28125 621.148438 1169.710938 561.738281 1050.191406 561.738281 C 930.433594 561.738281 825.753906 621.148438 768.546875 621.148438 C 739.199219 621.148438 722.351562 605.53125 722.351562 558.238281 C 722.351562 418.820312 869 305.671875 1050.191406 305.671875 C 1231 305.671875 1377.621094 418.820312 1377.621094 558.238281 C 1377.621094 605.519531 1360.769531 621.140625 1331.449219 621.148438 "/>
</clipPath>
<clipPath id="clip-14">
<path clip-rule="nonzero" d="M 1331.449219 621.148438 C 1274.28125 621.148438 1169.710938 561.738281 1050.191406 561.738281 C 930.433594 561.738281 825.753906 621.148438 768.546875 621.148438 C 739.199219 621.148438 722.351562 605.53125 722.351562 558.238281 C 722.351562 418.820312 869 305.671875 1050.191406 305.671875 C 1231 305.671875 1377.621094 418.820312 1377.621094 558.238281 C 1377.621094 605.519531 1360.769531 621.140625 1331.449219 621.148438 "/>
</clipPath>
<radialGradient id="radial-pattern-3" gradientUnits="userSpaceOnUse" cx="0" cy="0" fx="0" fy="0" r="411.111" gradientTransform="matrix(1, 0, 0, 1, 1049.98, 697.04)">
<stop offset="0" stop-color="rgb(93.510437%, 16.372681%, 25.062561%)" stop-opacity="1"/>
<stop offset="0.015625" stop-color="rgb(93.501282%, 16.279602%, 24.90387%)" stop-opacity="1"/>
<stop offset="0.0273438" stop-color="rgb(93.417358%, 16.064453%, 24.77417%)" stop-opacity="1"/>
<stop offset="0.0546875" stop-color="rgb(93.228149%, 15.890503%, 24.659729%)" stop-opacity="1"/>
<stop offset="0.0820312" stop-color="rgb(93.008423%, 15.847778%, 24.549866%)" stop-opacity="1"/>
<stop offset="0.09375" stop-color="rgb(92.784119%, 15.779114%, 24.497986%)" stop-opacity="1"/>
<stop offset="0.105469" stop-color="rgb(92.610168%, 15.635681%, 24.47052%)" stop-opacity="1"/>
<stop offset="0.117188" stop-color="rgb(92.5354%, 15.600586%, 24.388123%)" stop-opacity="1"/>
<stop offset="0.128906" stop-color="rgb(92.381287%, 15.539551%, 24.295044%)" stop-opacity="1"/>
<stop offset="0.152344" stop-color="rgb(92.192078%, 15.408325%, 24.223328%)" stop-opacity="1"/>
<stop offset="0.164062" stop-color="rgb(92.041016%, 15.379333%, 24.131775%)" stop-opacity="1"/>
<stop offset="0.1875" stop-color="rgb(91.85791%, 15.325928%, 24.061584%)" stop-opacity="1"/>
<stop offset="0.199219" stop-color="rgb(91.656494%, 15.188599%, 24.038696%)" stop-opacity="1"/>
<stop offset="0.210938" stop-color="rgb(91.439819%, 15.156555%, 23.973083%)" stop-opacity="1"/>
<stop offset="0.234375" stop-color="rgb(91.25824%, 15.115356%, 23.884583%)" stop-opacity="1"/>
<stop offset="0.246094" stop-color="rgb(91.064453%, 14.987183%, 23.815918%)" stop-opacity="1"/>
<stop offset="0.257812" stop-color="rgb(90.841675%, 14.949036%, 23.753357%)" stop-opacity="1"/>
<stop offset="0.277344" stop-color="rgb(90.731812%, 14.981079%, 23.681641%)" stop-opacity="1"/>
<stop offset="0.285156" stop-color="rgb(90.666199%, 15.007019%, 23.602295%)" stop-opacity="1"/>
<stop offset="0.292969" stop-color="rgb(90.512085%, 14.929199%, 23.527527%)" stop-opacity="1"/>
<stop offset="0.3125" stop-color="rgb(90.290833%, 14.814758%, 23.423767%)" stop-opacity="1"/>
<stop offset="0.332031" stop-color="rgb(90.119934%, 14.805603%, 23.342896%)" stop-opacity="1"/>
<stop offset="0.351562" stop-color="rgb(90.016174%, 14.831543%, 23.291016%)" stop-opacity="1"/>
<stop offset="0.359375" stop-color="rgb(89.872742%, 14.84375%, 23.231506%)" stop-opacity="1"/>
<stop offset="0.367188" stop-color="rgb(89.663696%, 14.71405%, 23.191833%)" stop-opacity="1"/>
<stop offset="0.386719" stop-color="rgb(89.427185%, 14.608765%, 23.080444%)" stop-opacity="1"/>
<stop offset="0.402344" stop-color="rgb(89.083862%, 14.63623%, 22.914124%)" stop-opacity="1"/>
<stop offset="0.417969" stop-color="rgb(88.743591%, 14.613342%, 22.828674%)" stop-opacity="1"/>
<stop offset="0.433594" stop-color="rgb(88.594055%, 14.489746%, 22.73407%)" stop-opacity="1"/>
<stop offset="0.449219" stop-color="rgb(88.40332%, 14.431763%, 22.612%)" stop-opacity="1"/>
<stop offset="0.464844" stop-color="rgb(88.157654%, 14.482117%, 22.555542%)" stop-opacity="1"/>
<stop offset="0.480469" stop-color="rgb(88.017273%, 14.476013%, 22.485352%)" stop-opacity="1"/>
<stop offset="0.496094" stop-color="rgb(87.863159%, 14.349365%, 22.421265%)" stop-opacity="1"/>
<stop offset="0.511719" stop-color="rgb(87.748718%, 14.257812%, 22.3526%)" stop-opacity="1"/>
<stop offset="0.523438" stop-color="rgb(87.64801%, 14.299011%, 22.238159%)" stop-opacity="1"/>
<stop offset="0.535156" stop-color="rgb(87.437439%, 14.324951%, 22.148132%)" stop-opacity="1"/>
<stop offset="0.546875" stop-color="rgb(87.220764%, 14.283752%, 22.071838%)" stop-opacity="1"/>
<stop offset="0.558594" stop-color="rgb(86.985779%, 14.143372%, 21.981812%)" stop-opacity="1"/>
<stop offset="0.585938" stop-color="rgb(86.77063%, 14.065552%, 21.885681%)" stop-opacity="1"/>
<stop offset="0.597656" stop-color="rgb(86.569214%, 14.047241%, 21.824646%)" stop-opacity="1"/>
<stop offset="0.609375" stop-color="rgb(86.366272%, 13.916016%, 21.820068%)" stop-opacity="1"/>
<stop offset="0.632812" stop-color="rgb(86.221313%, 13.844299%, 21.807861%)" stop-opacity="1"/>
<stop offset="0.640625" stop-color="rgb(86.100769%, 13.876343%, 21.749878%)" stop-opacity="1"/>
<stop offset="0.648438" stop-color="rgb(85.960388%, 13.896179%, 21.662903%)" stop-opacity="1"/>
<stop offset="0.65625" stop-color="rgb(85.708618%, 13.812256%, 21.537781%)" stop-opacity="1"/>
<stop offset="0.675781" stop-color="rgb(85.461426%, 13.68103%, 21.409607%)" stop-opacity="1"/>
<stop offset="0.695312" stop-color="rgb(85.279846%, 13.528442%, 21.350098%)" stop-opacity="1"/>
<stop offset="0.710938" stop-color="rgb(85.13031%, 13.404846%, 21.292114%)" stop-opacity="1"/>
<stop offset="0.726562" stop-color="rgb(84.881592%, 13.388062%, 21.192932%)" stop-opacity="1"/>
<stop offset="0.742188" stop-color="rgb(84.591675%, 13.282776%, 21.092224%)" stop-opacity="1"/>
<stop offset="0.757812" stop-color="rgb(84.44519%, 13.148499%, 21.01593%)" stop-opacity="1"/>
<stop offset="0.769531" stop-color="rgb(84.301758%, 13.136292%, 20.993042%)" stop-opacity="1"/>
<stop offset="0.78125" stop-color="rgb(83.953857%, 13.009644%, 20.899963%)" stop-opacity="1"/>
<stop offset="0.808594" stop-color="rgb(83.66394%, 12.87384%, 20.762634%)" stop-opacity="1"/>
<stop offset="0.820312" stop-color="rgb(83.518982%, 12.89978%, 20.69397%)" stop-opacity="1"/>
<stop offset="0.839844" stop-color="rgb(83.375549%, 12.869263%, 20.652771%)" stop-opacity="1"/>
<stop offset="0.847656" stop-color="rgb(83.302307%, 12.722778%, 20.56427%)" stop-opacity="1"/>
<stop offset="0.863281" stop-color="rgb(83.103943%, 12.6297%, 20.454407%)" stop-opacity="1"/>
<stop offset="0.878906" stop-color="rgb(82.859802%, 12.640381%, 20.358276%)" stop-opacity="1"/>
<stop offset="0.890625" stop-color="rgb(82.627869%, 12.54425%, 20.26062%)" stop-opacity="1"/>
<stop offset="0.917969" stop-color="rgb(82.452393%, 12.438965%, 20.170593%)" stop-opacity="1"/>
<stop offset="0.925781" stop-color="rgb(82.266235%, 12.390137%, 20.057678%)" stop-opacity="1"/>
<stop offset="0.941406" stop-color="rgb(82.023621%, 12.252808%, 19.995117%)" stop-opacity="1"/>
<stop offset="0.953125" stop-color="rgb(81.777954%, 12.174988%, 19.918823%)" stop-opacity="1"/>
<stop offset="0.976562" stop-color="rgb(81.500244%, 12.193298%, 19.798279%)" stop-opacity="1"/>
<stop offset="0.988281" stop-color="rgb(81.365967%, 12.210083%, 19.708252%)" stop-opacity="1"/>
<stop offset="1" stop-color="rgb(81.367493%, 12.22229%, 19.650269%)" stop-opacity="1"/>
</radialGradient>
</defs>
<rect x="-210" y="-210" width="2520" height="2520" fill="rgb(100%, 100%, 100%)" fill-opacity="1"/>
<path fill-rule="evenodd" fill="rgb(12.866211%, 11.170959%, 11.180115%)" fill-opacity="1" d="M 1630.269531 694.171875 C 1630.269531 375.050781 1371.5 116.269531 1052.378906 116.269531 C 733.246094 116.269531 474.480469 375.050781 474.480469 694.171875 C 474.480469 817.191406 512.976562 931.269531 578.550781 1025 L 576.167969 1025 L 1051.949219 1894.078125 L 1052.378906 1895.730469 L 1052.53125 1895.140625 L 1052.851562 1895.730469 L 1526.28125 1025 L 1526.269531 1025 C 1591.820312 931.269531 1630.269531 817.191406 1630.269531 694.171875 "/>
<g clip-path="url(#clip-0)">
<g clip-path="url(#clip-1)">
<g clip-path="url(#clip-2)">
<path fill-rule="nonzero" fill="url(#linear-pattern-0)" d="M 2000.253906 949.613281 L 1317.898438 -234.46875 L 149.710938 438.726562 L 832.0625 1622.808594 Z M 2000.253906 949.613281 "/>
</g>
</g>
</g>
<g clip-path="url(#clip-3)">
<g clip-path="url(#clip-4)">
<g clip-path="url(#clip-5)">
<path fill-rule="nonzero" fill="url(#radial-pattern-0)" d="M 256.5 1817.351562 L 256.5 2070.519531 L 1843.5 2070.519531 L 1843.5 1817.351562 Z M 256.5 1817.351562 "/>
</g>
</g>
</g>
<g clip-path="url(#clip-6)">
<g clip-path="url(#clip-7)">
<g clip-path="url(#clip-8)">
<path fill-rule="nonzero" fill="url(#radial-pattern-1)" d="M 474.480469 223.691406 L 474.480469 1895.730469 L 1273.578125 1895.730469 L 1273.578125 223.691406 Z M 474.480469 223.691406 "/>
</g>
</g>
</g>
<path fill-rule="nonzero" fill="rgb(36.434937%, 35.655212%, 36.49292%)" fill-opacity="1" d="M 712.257812 1075.101562 C 607.019531 981.671875 540.542969 845.460938 540.542969 694.171875 C 540.542969 587.308594 573.714844 487.980469 630.277344 405.929688 C 604.390625 484.320312 590.503906 567.230469 590.503906 653 C 590.503906 805.910156 634.632812 949.730469 712.257812 1075.101562 "/>
<path fill-rule="nonzero" fill="rgb(100%, 100%, 100%)" fill-opacity="1" d="M 1050.25 253.789062 C 1294.859375 253.789062 1493.019531 451.949219 1493.019531 697.03125 C 1493.019531 941.648438 1294.859375 1139.761719 1050.25 1139.761719 C 805.117188 1139.761719 606.984375 941.648438 606.984375 697.03125 C 606.984375 451.949219 805.117188 253.789062 1050.25 253.789062 "/>
<g clip-path="url(#clip-9)">
<g clip-path="url(#clip-10)">
<g clip-path="url(#clip-11)">
<path fill-rule="nonzero" fill="url(#radial-pattern-2)" d="M 641.148438 283.660156 L 641.148438 1110.410156 L 1458.820312 1110.410156 L 1458.820312 283.660156 Z M 641.148438 283.660156 "/>
</g>
</g>
</g>
<g clip-path="url(#clip-12)">
<g clip-path="url(#clip-13)">
<g clip-path="url(#clip-14)">
<path fill-rule="nonzero" fill="url(#radial-pattern-3)" d="M 722.351562 305.671875 L 722.351562 621.148438 L 1377.621094 621.148438 L 1377.621094 305.671875 Z M 722.351562 305.671875 "/>
</g>
</g>
</g>
<path fill-rule="evenodd" fill="rgb(100%, 100%, 100%)" fill-opacity="1" d="M 1032.230469 750.699219 L 984.960938 750.699219 C 983.496094 750.699219 982.601562 751.238281 981.734375 752.140625 C 980.566406 753.269531 980 754.769531 979.699219 756.5 L 973.871094 802.609375 L 973.871094 803.199219 C 973.871094 804.039062 974.4375 804.941406 975.035156 805.828125 C 975.902344 806.671875 977.070312 807.269531 978.535156 807.269531 C 978.535156 807.269531 978.832031 807.269531 979.101562 807.269531 L 1120.871094 807.269531 C 1121.171875 807.269531 1121.46875 807.269531 1121.46875 807.269531 C 1122.960938 807.269531 1124.101562 806.671875 1124.988281 805.828125 C 1125.53125 804.941406 1126.128906 804.039062 1126.128906 803.199219 L 1126.128906 802.609375 L 1120.328125 756.5 C 1120.03125 754.769531 1119.429688 753.269531 1118.238281 752.140625 C 1117.699219 751.238281 1116.5 750.699219 1115.070312 750.699219 Z M 984.960938 743.109375 L 1115.070312 743.109375 C 1118.53125 743.109375 1121.46875 744.539062 1123.800781 746.578125 C 1126.128906 748.910156 1127.621094 752.140625 1127.921875 755.308594 L 1133.71875 801.710938 C 1133.71875 802.308594 1133.71875 802.839844 1133.71875 803.199219 C 1133.71875 806.371094 1132.53125 809.011719 1130.25 811.339844 C 1128.160156 813.128906 1125.53125 814.570312 1122.660156 814.859375 L 1122.660156 815.101562 C 1122.058594 815.101562 1121.46875 815.101562 1120.871094 815.101562 L 979.101562 815.101562 C 978.535156 815.101562 977.9375 815.101562 977.367188 815.101562 L 977.367188 814.859375 C 974.4375 814.570312 971.808594 813.371094 969.773438 811.339844 C 967.472656 809.011719 966.304688 806.371094 966.304688 803.199219 C 966.304688 802.839844 966.304688 802.308594 966.304688 801.710938 L 972.105469 755.308594 C 972.433594 752.140625 973.871094 748.910156 976.203125 746.578125 C 978.535156 744.539062 981.433594 743.109375 984.960938 743.109375 Z M 1248.359375 701.078125 L 1194.421875 714.78125 C 1181.261719 717.988281 1169.601562 725.871094 1169.601562 739.589844 C 1169.601562 753.03125 1180.660156 764.101562 1194.421875 764.101562 L 1248.359375 764.101562 C 1262.109375 764.101562 1273.171875 753.03125 1273.171875 739.589844 L 1273.171875 725.871094 C 1273.171875 712.179688 1261.511719 697.871094 1248.359375 701.078125 Z M 851.644531 701.078125 L 905.609375 714.78125 C 918.738281 717.988281 930.398438 725.871094 930.398438 739.589844 C 930.398438 753.03125 919.304688 764.101562 905.609375 764.101562 L 851.644531 764.101562 C 837.921875 764.101562 826.859375 753.03125 826.859375 739.589844 L 826.859375 725.871094 C 826.859375 712.179688 838.488281 697.871094 851.644531 701.078125 Z M 1261.808594 608.289062 L 1236.160156 545.578125 C 1224.140625 516.121094 1210.148438 487.53125 1178.328125 487.53125 L 921.636719 487.53125 C 889.824219 487.53125 875.859375 516.121094 863.871094 545.578125 L 838.21875 608.289062 C 837.621094 608.289062 837.054688 608.289062 836.457031 608.289062 L 790.082031 608.289062 C 776.089844 608.289062 764.398438 619.691406 764.398438 633.988281 C 764.398438 648 776.089844 659.660156 790.082031 659.660156 L 805.839844 659.660156 L 797.945312 811.339844 C 797.378906 821.859375 804.972656 830.589844 814.300781 833.519531 L 814.300781 867.960938 C 814.300781 891.289062 833.257812 910.539062 856.609375 910.539062 L 858.042969 910.539062 C 881.394531 910.539062 900.378906 891.289062 900.378906 867.960938 L 900.378906 834.660156 L 1199.679688 834.660156 L 1199.679688 867.960938 C 1199.679688 891.289062 1218.640625 910.539062 1241.960938 910.539062 L 1243.390625 910.539062 C 1266.769531 910.539062 1285.730469 891.289062 1285.730469 867.960938 L 1285.730469 833.519531 C 1295.300781 830.589844 1302.648438 821.859375 1302.050781 811.339844 L 1294.160156 659.660156 L 1309.949219 659.660156 C 1323.941406 659.660156 1335.601562 648 1335.601562 633.988281 C 1335.601562 619.691406 1323.941406 608.289062 1309.949219 608.289062 L 1263.539062 608.289062 C 1262.949219 608.289062 1262.410156 608.289062 1261.808594 608.289062 Z M 866.800781 629.609375 L 893.621094 569.199219 C 903.546875 546.160156 915.507812 523.988281 942.058594 523.988281 L 1157.941406 523.988281 C 1184.488281 523.988281 1196.449219 546.160156 1206.378906 569.199219 L 1233.171875 629.609375 L 866.800781 629.609375 "/>
</svg>
